<?xml version="1.0" encoding="UTF-8"?> <svg xmlns="http://www.w3.org/2000/svg" viewBox="0 0 211.33 30.63"><rect x="161.13" y="12.8" width="11.16" height="5.1"></rect><path d="M465.49,192.27a10.23,10.23,0,0,1-4-.79,9.38,9.38,0,0,1-3.28-2.23,10,10,0,0,1-2.16-3.21,9.8,9.8,0,0,1-.82-4,9.63,9.63,0,0,1,.82-3.94,10.67,10.67,0,0,1,2.16-3.25,10,10,0,0,1,3.28-2.23,10.79,10.79,0,0,1,4-.75,10,10,0,0,1,7.23,2.94l3.62-3.55a15.84,15.84,0,0,0-4.89-3.33,15.18,15.18,0,0,0-11.88,0,15.55,15.55,0,0,0-4.93,3.29,15.78,15.78,0,0,0-3.28,4.82,14.62,14.62,0,0,0-1.23,6v0a14.69,14.69,0,0,0,1.23,6,16.27,16.27,0,0,0,3.28,4.82,15.55,15.55,0,0,0,4.93,3.29,15.13,15.13,0,0,0,11.88,0,15.64,15.64,0,0,0,4.89-3.32l-3.62-3.56A10,10,0,0,1,465.49,192.27Z" transform="translate(-304.33 -166.77)"></path><polygon points="20.93 12.72 5.53 12.72 5.53 0.43 0 0.43 0 30.21 5.53 30.21 5.53 17.45 20.93 17.45 20.93 30.21 26.46 30.21 26.46 0.43 20.93 0.43 20.93 12.72"></polygon><path d="M368.45,171.13a15.36,15.36,0,0,0-5.08-3.21,18.36,18.36,0,0,0-12.79,0,15.35,15.35,0,0,0-5.1,3.21,14.28,14.28,0,0,0-3.36,4.85,16.13,16.13,0,0,0,0,12.21,14.38,14.38,0,0,0,3.36,4.85,15.35,15.35,0,0,0,5.1,3.21A17.42,17.42,0,0,0,357,197.4a17.09,17.09,0,0,0,6.36-1.15,15.64,15.64,0,0,0,5.08-3.19,14.09,14.09,0,0,0,3.36-4.85,16.18,16.18,0,0,0,0-12.23A14.28,14.28,0,0,0,368.45,171.13Zm-1.81,15.15a10.17,10.17,0,0,1-2.19,3.31,9.69,9.69,0,0,1-3.32,2.2,11.79,11.79,0,0,1-8.33,0,9.69,9.69,0,0,1-3.32-2.2,10.09,10.09,0,0,1-2.19-3.34,11.45,11.45,0,0,1,0-8.36,10.21,10.21,0,0,1,2.21-3.32,9.8,9.8,0,0,1,3.32-2.19,11,11,0,0,1,4.15-.76,11.07,11.07,0,0,1,4.16.76,9.52,9.52,0,0,1,3.32,2.19,10.32,10.32,0,0,1,2.19,3.32,11.53,11.53,0,0,1,0,8.39Z" transform="translate(-304.33 -166.77)"></path><polygon points="84.33 0.43 78.8 0.43 78.8 30.21 99.9 30.21 99.9 25.53 84.33 25.53 84.33 0.43"></polygon><path d="M422.1,167.19,408.7,197h5.7l3-6.9h14.9l3,6.9H441l-13.45-29.79Zm-2.89,18.55,5.58-13,5.6,13Z" transform="translate(-304.33 -166.77)"></path><path d="M514.47,176a14.28,14.28,0,0,0-3.36-4.85,15.36,15.36,0,0,0-5.08-3.21,18.36,18.36,0,0,0-12.79,0,15.35,15.35,0,0,0-5.1,3.21,14.28,14.28,0,0,0-3.36,4.85,16.26,16.26,0,0,0,0,12.21,14.38,14.38,0,0,0,3.36,4.85,15.35,15.35,0,0,0,5.1,3.21,17.42,17.42,0,0,0,6.43,1.15,17.09,17.09,0,0,0,6.36-1.15,15.64,15.64,0,0,0,5.08-3.19,14.09,14.09,0,0,0,3.36-4.85,16.18,16.18,0,0,0,0-12.23Zm-5.16,10.3a10.36,10.36,0,0,1-2.2,3.31,9.74,9.74,0,0,1-3.31,2.2,11.82,11.82,0,0,1-8.34,0,9.69,9.69,0,0,1-3.32-2.2,10.09,10.09,0,0,1-2.19-3.34,11.45,11.45,0,0,1,0-8.36,10.21,10.21,0,0,1,2.21-3.32,9.8,9.8,0,0,1,3.32-2.19,11,11,0,0,1,4.15-.76,11.16,11.16,0,0,1,4.17.76,9.57,9.57,0,0,1,3.31,2.19,10.51,10.51,0,0,1,2.2,3.32,11.67,11.67,0,0,1,0,8.39Z" transform="translate(-304.33 -166.77)"></path></svg> 